<svg xmlns="http://www.w3.org/2000/svg"
     width="1010"
     height="880"
     viewBox="120 100 1010 880">

  <defs>

    <!-- BLUE GRADIENT -->
    <linearGradient id="blueGrad" x1="0" y1="0" x2="1" y2="1">
      <stop offset="0%" stop-color="#0A58B8"/>
      <stop offset="55%" stop-color="#0B6FD1"/>
      <stop offset="100%" stop-color="#1686E5"/>
    </linearGradient>

    <!-- NAVY GRADIENT -->
    <linearGradient id="navyGrad" x1="0" y1="0" x2="1" y2="1">
      <stop offset="0%" stop-color="#041B38"/>
      <stop offset="100%" stop-color="#0A2D56"/>
    </linearGradient>

  </defs>

  <!-- ========================= -->
  <!-- MAIN LOGO -->
  <!-- ========================= -->

  <g fill-rule="evenodd">

    <!-- ========================= -->
    <!-- BLUE OUTER CIRCLE EFFECT -->
    <!-- ========================= -->

    <g fill="url(#blueGrad)">

      <path d="M433 203
        L405 232 L432 208 L454 192 L474 180 L494 170
        L516 161 L549 151 L575 146 L588 145 L589 144
        L600 144 L601 143 L652 144 L653 145 L678 148
        L713 157 L744 169 L768 181 L798 200 L828 224
        L857 253 L874 274 L890 298 L904 324 L915 350
        L926 384 L926 388 L932 410 L932 415 L935 428
        L935 435 L936 436 L936 443 L937 444 L938 471
        L939 472 L939 494 L938 495 L938 513 L937 514
        L936 532 L926 582 L916 613 L908 633 L895 659
        L875 691 L878 689 L903 663 L923 638 L924 635
        L938 615 L955 583 L968 550 L968 547 L972 537
        L973 530 L977 518 L981 497 L981 491 L982 490
        L983 473 L984 472 L984 455 L985 454 L984 420
        L983 419 L983 410 L982 409 L980 390 L973 360
        L964 332 L952 304 L937 276 L912 240 L894 219
        L871 197 L841 174 L815 158 L789 145 L746 129
        L711 121 L690 119 L689 118 L678 118 L677 117
        L635 117 L634 118 L624 118 L623 119 L602 121
        L574 127 L542 137 L518 147 L484 165 L464 178 Z"/>

    </g>


    <!-- ========================= -->
    <!-- T - NAVY -->
    <!-- ========================= -->

    <g fill="url(#navyGrad)">

      <path d="M306 267
        L258 349 L256 355
        L468 355
        L469 356
        L469 721
        L500 739
        L523 750
        L562 764
        L562 356
        L563 355
        L737 355
        L763 315
        L792 267 Z"/>


      <!-- ========================= -->
      <!-- LEFT CURVED PART - NAVY -->
      <!-- ========================= -->

      <path d="M310 385
        L303 401 L293 430 L285 469
        L284 491 L283 492 L283 517
        L284 518 L285 540 L286 541 L286 547
        L290 568 L296 590 L306 618 L313 632
        L313 634 L327 660 L339 679 L355 700
        L367 714 L393 740 L411 755 L439 775
        L481 798 L511 810 L527 815 L551 821
        L574 824 L575 825 L597 826 L598 827
        L628 827 L629 826 L652 825 L653 824
        L675 821 L713 810 L739 799 L760 787
        L741 795 L735 796 L725 800 L705 805
        L686 807 L685 808 L677 808 L676 809
        L659 809 L658 810 L629 809 L628 808
        L619 808 L618 807 L594 804 L550 792
        L505 773 L463 748 L440 731 L419 713
        L382 676 L354 640 L343 623 L327 593
        L311 552 L302 514 L302 508 L300 500
        L300 490 L299 489 L300 434 L301 433
        L301 426 L302 425 L305 404 Z"/>

    </g>


    <!-- ========================= -->
    <!-- R - BLUE -->
    <!-- EXACT SAME BLUE AS CIRCLE -->
    <!-- ========================= -->

    <g fill="url(#blueGrad)">

      <path d="M588 387
        L588 463
        L766 463
        L767 464
        L774 464
        L789 468
        L805 477
        L813 485
        L817 491
        L820 498
        L821 508
        L822 509
        L820 526
        L813 540
        L802 551
        L796 555
        L774 563
        L757 564
        L756 565
        L588 565
        L828 805
        L961 805
        L783 623
        L784 620
        L805 617
        L832 609
        L857 597
        L869 589
        L886 573
        L899 554
        L904 543
        L909 526
        L910 512
        L911 511
        L911 495
        L910 494
        L909 480
        L905 465
        L897 448
        L888 435
        L876 423
        L867 416
        L841 402
        L816 394
        L812 394
        L797 390
        L782 389
        L781 388
        L769 388
        L768 387 Z"/>

    </g>


    <!-- ========================= -->
    <!-- ENTERPRISES -->
    <!-- TR KE NEECHE -->
    <!-- CENTER ALIGNED -->
    <!-- ========================= -->

    <g
      fill="url(#navyGrad)"
      font-family="Arial, Helvetica, sans-serif"
      font-size="140"
      font-weight="700"
      letter-spacing="6"
      text-anchor="middle">

      <text x="627" y="940">ENTERPRISES</text>

    </g>

  </g>

</svg>
